<mxfile host="Electron" agent="Mozilla/5.0 (Windows NT 10.0; Win64; x64) AppleWebKit/537.36 (KHTML, like Gecko) draw.io/28.0.6 Chrome/138.0.7204.100 Electron/37.2.3 Safari/537.36" version="28.0.6">
  <diagram name="Page-1" id="5enRWS3Q2HC1OCs4wjE-">
    <mxGraphModel dx="690" dy="561" grid="1" gridSize="10" guides="1" tooltips="1" connect="1" arrows="1" fold="1" page="1" pageScale="1" pageWidth="850" pageHeight="1100" math="0" shadow="0">
      <root>
        <mxCell id="0" />
        <mxCell id="1" parent="0" />
        <mxCell id="vPwLyxC2FXHlpwJ7Dm0h-1" value="crm_prd_info" style="swimlane;fontStyle=0;childLayout=stackLayout;horizontal=1;startSize=30;horizontalStack=0;resizeParent=1;resizeParentMax=0;resizeLast=0;collapsible=1;marginBottom=0;whiteSpace=wrap;html=1;rounded=1;fillColor=#b1ddf0;strokeColor=#10739e;fontSize=17;" vertex="1" parent="1">
          <mxGeometry x="285" y="190" width="150" height="70" as="geometry" />
        </mxCell>
        <mxCell id="vPwLyxC2FXHlpwJ7Dm0h-2" value="cst_id" style="text;strokeColor=none;fillColor=none;align=left;verticalAlign=middle;spacingLeft=4;spacingRight=4;overflow=hidden;points=[[0,0.5],[1,0.5]];portConstraint=eastwest;rotatable=0;whiteSpace=wrap;html=1;" vertex="1" parent="vPwLyxC2FXHlpwJ7Dm0h-1">
          <mxGeometry y="30" width="150" height="40" as="geometry" />
        </mxCell>
        <mxCell id="vPwLyxC2FXHlpwJ7Dm0h-5" value="Customer Information" style="text;html=1;align=center;verticalAlign=middle;whiteSpace=wrap;rounded=0;" vertex="1" parent="1">
          <mxGeometry x="285" y="160" width="140" height="30" as="geometry" />
        </mxCell>
        <mxCell id="vPwLyxC2FXHlpwJ7Dm0h-7" value="&lt;font style=&quot;font-size: 17px;&quot;&gt;crm_cust_info&lt;/font&gt;" style="swimlane;fontStyle=0;childLayout=stackLayout;horizontal=1;startSize=30;horizontalStack=0;resizeParent=1;resizeParentMax=0;resizeLast=0;collapsible=1;marginBottom=0;whiteSpace=wrap;html=1;rounded=1;fillColor=#b1ddf0;strokeColor=#10739e;fontSize=20;" vertex="1" parent="1">
          <mxGeometry x="290" y="370" width="150" height="60" as="geometry" />
        </mxCell>
        <mxCell id="vPwLyxC2FXHlpwJ7Dm0h-8" value="cst_id" style="text;strokeColor=none;fillColor=none;align=left;verticalAlign=middle;spacingLeft=4;spacingRight=4;overflow=hidden;points=[[0,0.5],[1,0.5]];portConstraint=eastwest;rotatable=0;whiteSpace=wrap;html=1;" vertex="1" parent="vPwLyxC2FXHlpwJ7Dm0h-7">
          <mxGeometry y="30" width="150" height="30" as="geometry" />
        </mxCell>
        <mxCell id="vPwLyxC2FXHlpwJ7Dm0h-31" value="" style="edgeStyle=orthogonalEdgeStyle;rounded=0;orthogonalLoop=1;jettySize=auto;html=1;" edge="1" parent="1" source="vPwLyxC2FXHlpwJ7Dm0h-9" target="vPwLyxC2FXHlpwJ7Dm0h-8">
          <mxGeometry relative="1" as="geometry" />
        </mxCell>
        <mxCell id="vPwLyxC2FXHlpwJ7Dm0h-9" value="current and history product info" style="text;html=1;align=center;verticalAlign=middle;whiteSpace=wrap;rounded=0;" vertex="1" parent="1">
          <mxGeometry x="290" y="340" width="140" height="30" as="geometry" />
        </mxCell>
        <mxCell id="vPwLyxC2FXHlpwJ7Dm0h-16" value="&lt;font style=&quot;font-size: 17px;&quot;&gt;crm_sales_info&lt;/font&gt;" style="swimlane;fontStyle=0;childLayout=stackLayout;horizontal=1;startSize=30;horizontalStack=0;resizeParent=1;resizeParentMax=0;resizeLast=0;collapsible=1;marginBottom=0;whiteSpace=wrap;html=1;rounded=1;fillColor=#b1ddf0;strokeColor=#10739e;fontSize=20;" vertex="1" parent="1">
          <mxGeometry x="50" y="270" width="150" height="60" as="geometry" />
        </mxCell>
        <mxCell id="vPwLyxC2FXHlpwJ7Dm0h-17" value="cst_id" style="text;strokeColor=none;fillColor=none;align=left;verticalAlign=middle;spacingLeft=4;spacingRight=4;overflow=hidden;points=[[0,0.5],[1,0.5]];portConstraint=eastwest;rotatable=0;whiteSpace=wrap;html=1;" vertex="1" parent="vPwLyxC2FXHlpwJ7Dm0h-16">
          <mxGeometry y="30" width="150" height="30" as="geometry" />
        </mxCell>
        <mxCell id="vPwLyxC2FXHlpwJ7Dm0h-18" value="&lt;font style=&quot;font-size: 16px;&quot;&gt;erp_px_cat_g1v2&lt;/font&gt;" style="swimlane;fontStyle=0;childLayout=stackLayout;horizontal=1;startSize=30;horizontalStack=0;resizeParent=1;resizeParentMax=0;resizeLast=0;collapsible=1;marginBottom=0;whiteSpace=wrap;html=1;rounded=1;fillColor=#b1ddf0;strokeColor=#10739e;fontSize=20;" vertex="1" parent="1">
          <mxGeometry x="550" y="190" width="150" height="60" as="geometry" />
        </mxCell>
        <mxCell id="vPwLyxC2FXHlpwJ7Dm0h-19" value="cst_id" style="text;strokeColor=none;fillColor=none;align=left;verticalAlign=middle;spacingLeft=4;spacingRight=4;overflow=hidden;points=[[0,0.5],[1,0.5]];portConstraint=eastwest;rotatable=0;whiteSpace=wrap;html=1;" vertex="1" parent="vPwLyxC2FXHlpwJ7Dm0h-18">
          <mxGeometry y="30" width="150" height="30" as="geometry" />
        </mxCell>
        <mxCell id="vPwLyxC2FXHlpwJ7Dm0h-21" value="&lt;font style=&quot;font-size: 17px;&quot;&gt;erp_cust_az12&lt;/font&gt;" style="swimlane;fontStyle=0;childLayout=stackLayout;horizontal=1;startSize=30;horizontalStack=0;resizeParent=1;resizeParentMax=0;resizeLast=0;collapsible=1;marginBottom=0;whiteSpace=wrap;html=1;rounded=1;fillColor=#b1ddf0;strokeColor=#10739e;fontSize=20;" vertex="1" parent="1">
          <mxGeometry x="550" y="290" width="150" height="60" as="geometry" />
        </mxCell>
        <mxCell id="vPwLyxC2FXHlpwJ7Dm0h-22" value="cst_id" style="text;strokeColor=none;fillColor=none;align=left;verticalAlign=middle;spacingLeft=4;spacingRight=4;overflow=hidden;points=[[0,0.5],[1,0.5]];portConstraint=eastwest;rotatable=0;whiteSpace=wrap;html=1;" vertex="1" parent="vPwLyxC2FXHlpwJ7Dm0h-21">
          <mxGeometry y="30" width="150" height="30" as="geometry" />
        </mxCell>
        <mxCell id="vPwLyxC2FXHlpwJ7Dm0h-23" value="&lt;font style=&quot;font-size: 17px;&quot;&gt;erp_loc_a101&lt;/font&gt;" style="swimlane;fontStyle=0;childLayout=stackLayout;horizontal=1;startSize=30;horizontalStack=0;resizeParent=1;resizeParentMax=0;resizeLast=0;collapsible=1;marginBottom=0;whiteSpace=wrap;html=1;rounded=1;fillColor=#b1ddf0;strokeColor=#10739e;fontSize=20;" vertex="1" parent="1">
          <mxGeometry x="550" y="390" width="150" height="60" as="geometry" />
        </mxCell>
        <mxCell id="vPwLyxC2FXHlpwJ7Dm0h-24" value="cst_id" style="text;strokeColor=none;fillColor=none;align=left;verticalAlign=middle;spacingLeft=4;spacingRight=4;overflow=hidden;points=[[0,0.5],[1,0.5]];portConstraint=eastwest;rotatable=0;whiteSpace=wrap;html=1;" vertex="1" parent="vPwLyxC2FXHlpwJ7Dm0h-23">
          <mxGeometry y="30" width="150" height="30" as="geometry" />
        </mxCell>
        <mxCell id="vPwLyxC2FXHlpwJ7Dm0h-25" value="" style="endArrow=classic;html=1;rounded=0;exitX=1.027;exitY=0.167;exitDx=0;exitDy=0;exitPerimeter=0;" edge="1" parent="1" source="vPwLyxC2FXHlpwJ7Dm0h-17">
          <mxGeometry width="50" height="50" relative="1" as="geometry">
            <mxPoint x="235" y="280" as="sourcePoint" />
            <mxPoint x="285" y="230" as="targetPoint" />
            <Array as="points">
              <mxPoint x="210" y="230" />
            </Array>
          </mxGeometry>
        </mxCell>
        <mxCell id="vPwLyxC2FXHlpwJ7Dm0h-26" value="" style="endArrow=classic;html=1;rounded=0;exitX=1;exitY=0.5;exitDx=0;exitDy=0;" edge="1" parent="1" source="vPwLyxC2FXHlpwJ7Dm0h-17">
          <mxGeometry width="50" height="50" relative="1" as="geometry">
            <mxPoint x="230" y="330" as="sourcePoint" />
            <mxPoint x="270" y="400" as="targetPoint" />
            <Array as="points" />
          </mxGeometry>
        </mxCell>
        <mxCell id="vPwLyxC2FXHlpwJ7Dm0h-27" value="" style="endArrow=classic;html=1;rounded=0;exitX=1.027;exitY=0;exitDx=0;exitDy=0;exitPerimeter=0;" edge="1" parent="1" source="vPwLyxC2FXHlpwJ7Dm0h-2">
          <mxGeometry width="50" height="50" relative="1" as="geometry">
            <mxPoint x="500" y="270" as="sourcePoint" />
            <mxPoint x="550" y="220" as="targetPoint" />
            <Array as="points">
              <mxPoint x="490" y="220" />
            </Array>
          </mxGeometry>
        </mxCell>
        <mxCell id="vPwLyxC2FXHlpwJ7Dm0h-28" value="" style="endArrow=classic;html=1;rounded=0;" edge="1" parent="1">
          <mxGeometry width="50" height="50" relative="1" as="geometry">
            <mxPoint x="500" y="380" as="sourcePoint" />
            <mxPoint x="550" y="330" as="targetPoint" />
            <Array as="points">
              <mxPoint x="500" y="330" />
            </Array>
          </mxGeometry>
        </mxCell>
        <mxCell id="vPwLyxC2FXHlpwJ7Dm0h-29" value="" style="endArrow=classic;html=1;rounded=0;" edge="1" parent="1">
          <mxGeometry width="50" height="50" relative="1" as="geometry">
            <mxPoint x="480" y="380" as="sourcePoint" />
            <mxPoint x="500" y="380" as="targetPoint" />
            <Array as="points">
              <mxPoint x="440" y="380" />
            </Array>
          </mxGeometry>
        </mxCell>
        <mxCell id="vPwLyxC2FXHlpwJ7Dm0h-30" value="" style="edgeStyle=orthogonalEdgeStyle;rounded=0;orthogonalLoop=1;jettySize=auto;html=1;" edge="1" parent="1" source="vPwLyxC2FXHlpwJ7Dm0h-8" target="vPwLyxC2FXHlpwJ7Dm0h-24">
          <mxGeometry relative="1" as="geometry" />
        </mxCell>
        <mxCell id="vPwLyxC2FXHlpwJ7Dm0h-32" value="" style="rounded=0;whiteSpace=wrap;html=1;fillColor=none;dashed=1;" vertex="1" parent="1">
          <mxGeometry x="30" y="120" width="430" height="360" as="geometry" />
        </mxCell>
        <mxCell id="vPwLyxC2FXHlpwJ7Dm0h-33" value="" style="rounded=0;whiteSpace=wrap;html=1;fillColor=none;dashed=1;" vertex="1" parent="1">
          <mxGeometry x="500" y="120" width="210" height="370" as="geometry" />
        </mxCell>
        <mxCell id="vPwLyxC2FXHlpwJ7Dm0h-34" value="CRM" style="text;html=1;align=center;verticalAlign=middle;whiteSpace=wrap;rounded=0;" vertex="1" parent="1">
          <mxGeometry x="225" y="90" width="75" height="30" as="geometry" />
        </mxCell>
        <mxCell id="vPwLyxC2FXHlpwJ7Dm0h-35" value="ERP" style="text;html=1;align=center;verticalAlign=middle;whiteSpace=wrap;rounded=0;" vertex="1" parent="1">
          <mxGeometry x="567.5" y="90" width="75" height="30" as="geometry" />
        </mxCell>
      </root>
    </mxGraphModel>
  </diagram>
</mxfile>
